# xmcd
#
# Track frame offsets: 
#        150
#        7524
#        12070
#        31701
#        46489
#        73556
#        89549
#        104217
#        111298
#        122479
#        140215
#        170467
#        179928
#        209199
#        223797
#        262396
#        283933
#        306124
#        327277
#
# Disc length: 4615 seconds
#
# Revision: 1
# Processed by: cddbd v1.5.2PL0 Copyright (c) Steve Scherf et al.
# Submitted via: ExactAudioCopy v0.99pb3
#
DISCID=2c120513
DTITLE=Various Artist - Music Maker Foundation Treasure Box - CD2
DYEAR=2006
DGENRE=Blues
TTITLE0=Etta Baker - Piece Behind the Bridge
TTITLE1=Rufus Mc Kenzie - Whoopin' the Blues
TTITLE2=John Dee Holeman - Chapel Hill Boogie
TTITLE3=Adolphus Bell - Alabama Woman
TTITLE4=Pura Fe - Going Home - Stomp Dance
TTITLE5=Sol - Interview with Mr. Franck
TTITLE6=Guitar Gabriel - Welfare Blues
TTITLE7=Mudcat - Chicken Man
TTITLE8=Carl Rutherford - West Virginia Breakdown
TTITLE9=David Butler - Deeds
TTITLE10=Little Freddie King - Going Down the Mountain
TTITLE11=Mr.Q  - Cocktail Boogie
TTITLE12=Lee Gates - Deuce's Wild
TTITLE13=Dave Mc Grew - Sweet Valentine
TTITLE14=Slewfoot and the Angels - Give Your Love Away
TTITLE15=Beverly 'Guitar' Watkins - Just Make Believe
TTITLE16=Tad Walters - My Back Door
TTITLE17=James Davis - Perry Beat
TTITLE18=Little Pink Anderson - Sittin' Here Singing the Blues
EXTD=Music Maker Relief Foundation
EXTT0=
EXTT1=
EXTT2=
EXTT3=
EXTT4=
EXTT5=
EXTT6=
EXTT7=
EXTT8=
EXTT9=
EXTT10=
EXTT11=
EXTT12=
EXTT13=
EXTT14=
EXTT15=
EXTT16=
EXTT17=
EXTT18=
PLAYORDER=
